<svg width="50" height="50" viewBox="0 0 50 50" fill="none" xmlns="http://www.w3.org/2000/svg">
<g id="basil:facebook-solid">
<path id="Vector" d="M29.5833 5.9895C27.0279 5.9895 24.577 7.00466 22.7701 8.81165C20.9631 10.6186 19.9479 13.0694 19.9479 15.6249V20.9895H14.7917C14.5333 20.9895 14.3229 21.1978 14.3229 21.4583V28.5416C14.3229 28.7999 14.5312 29.0103 14.7917 29.0103H19.9479V43.5416C19.9479 43.7999 20.1562 44.0103 20.4167 44.0103H27.5C27.7583 44.0103 27.9687 43.802 27.9687 43.5416V29.0103H33.1708C33.3854 29.0103 33.5729 28.8645 33.625 28.6562L35.3958 21.5728C35.4132 21.5037 35.4147 21.4315 35.4 21.3618C35.3853 21.292 35.3549 21.2265 35.3112 21.1703C35.2674 21.114 35.2113 21.0685 35.1473 21.0372C35.0833 21.0059 35.0129 20.9896 34.9417 20.9895H27.9687V15.6249C27.9687 15.4129 28.0105 15.2029 28.0916 15.007C28.1728 14.8112 28.2917 14.6332 28.4416 14.4832C28.5916 14.3333 28.7696 14.2144 28.9654 14.1332C29.1613 14.0521 29.3713 14.0103 29.5833 14.0103H35C35.2583 14.0103 35.4687 13.802 35.4687 13.5416V6.45825C35.4687 6.19992 35.2604 5.9895 35 5.9895H29.5833Z" fill="#393C5B"/>
</g>
</svg>
